<svg height="512pt" viewBox="-39 0 511 512" width="512pt" xmlns="http://www.w3.org/2000/svg"><path d="m434.160156 95.730469v398.710937c0 9.6875-7.878906 17.558594-17.570312 17.558594h-398.519532c-9.691406 0-17.570312-7.871094-17.570312-17.558594v-476.871094c0-9.691406 7.878906-17.570312 17.570312-17.570312h320.019532c4.699218 0 9.109375 1.828125 12.421875 5.148438l78.476562 78.140624c3.339844 3.351563 5.171875 7.761719 5.171875 12.441407zm0 0" fill="#ffe8cc"/><path d="m434.160156 95.730469v398.710937c0 9.6875-7.878906 17.558594-17.570312 17.558594h-200.011719v-512h121.511719c4.699218 0 9.109375 1.828125 12.421875 5.148438l78.476562 78.140624c3.339844 3.351563 5.171875 7.761719 5.171875 12.441407zm0 0" fill="#f9cea0"/><path d="m434.160156 95.730469v13.910156h-93.289062c-9.222656 0-16.710938-7.5-16.710938-16.710937v-92.929688h13.929688c4.699218 0 9.109375 1.828125 12.421875 5.148438l78.476562 78.140624c3.339844 3.351563 5.171875 7.761719 5.171875 12.441407zm0 0" fill="#d03b00"/><path d="m434.160156 320.820312v173.621094c0 9.6875-7.878906 17.558594-17.570312 17.558594h-398.519532c-9.691406 0-17.570312-7.871094-17.570312-17.558594v-173.621094zm0 0" fill="#ff6426"/><path d="m434.160156 320.820312v173.621094c0 9.6875-7.878906 17.558594-17.570312 17.558594h-200.011719v-191.179688zm0 0" fill="#d03b00"/><path d="m62.746094 460.050781v-87.421875c0-2.105468 1.050781-3.710937 3.160156-4.808594 2.109375-1.101562 4.625-1.648437 7.5625-1.648437 2.929688 0 5.449219.546875 7.558594 1.648437 2.105468 1.097657 3.160156 2.703126 3.160156 4.808594v33.679688h27.355469v-33.679688c0-2.105468 1.050781-3.710937 3.160156-4.808594 2.109375-1.101562 4.628906-1.648437 7.5625-1.648437 2.929687 0 5.449219.546875 7.558594 1.648437 2.109375 1.097657 3.160156 2.703126 3.160156 4.808594v87.421875c0 2.109375-1.050781 3.734375-3.160156 4.878907-2.109375 1.148437-4.628907 1.71875-7.558594 1.71875-2.933594 0-5.453125-.570313-7.5625-1.71875-2.105469-1.144532-3.160156-2.769532-3.160156-4.878907v-37.25h-27.355469v37.25c0 2.109375-1.054688 3.734375-3.160156 4.878907-2.109375 1.148437-4.628906 1.71875-7.558594 1.71875-2.9375 0-5.453125-.570313-7.5625-1.71875-2.109375-1.144532-3.160156-2.769532-3.160156-4.878907zm0 0" fill="#fff"/><path d="m141.503906 375.382812c0-2.488281.550782-4.648437 1.648438-6.472656 1.101562-1.828125 2.703125-2.738281 4.8125-2.738281h59.382812c2.105469 0 3.710938.910156 4.808594 2.738281 1.101562 1.824219 1.648438 3.984375 1.648438 6.472656 0 2.671876-.570313 4.917969-1.714844 6.746094-1.148438 1.824219-2.730469 2.734375-4.742188 2.734375h-18.96875v75.144531c0 2.121094-1.054687 3.761719-3.164062 4.914063s-4.625 1.726563-7.558594 1.726563-5.453125-.574219-7.558594-1.726563c-2.109375-1.152344-3.164062-2.792969-3.164062-4.914063v-75.144531h-18.96875c-2.015625 0-3.597656-.910156-4.742188-2.734375-1.144531-1.828125-1.71875-4.074218-1.71875-6.746094zm0 0" fill="#fff"/><g fill="#ffe8cc"><path d="m222.328125 460.050781v-83.160156c0-3.664063 1.03125-6.367187 3.09375-8.109375s4.605469-2.613281 7.628906-2.613281c4.125 0 7.261719.621093 9.414063 1.855469 2.152344 1.238281 4.558594 4.195312 7.21875 8.867187l14.15625 24.742187 14.15625-24.742187c2.65625-4.671875 5.066406-7.628906 7.21875-8.867187 2.148437-1.234376 5.292968-1.855469 9.414062-1.855469 3.023438 0 5.566406.871093 7.628906 2.613281s3.09375 4.445312 3.09375 8.109375v83.160156c0 2.109375-1.054687 3.734375-3.160156 4.878907-2.109375 1.148437-4.628906 1.71875-7.5625 1.71875s-5.453125-.570313-7.558594-1.71875c-2.109374-1.144532-3.164062-2.769532-3.164062-4.878907v-51.542969l-13.191406 22.539063c-1.5625 2.660156-3.941406 3.988281-7.148438 3.988281-3.117187 0-5.359375-1.328125-6.734375-3.988281l-13.058593-23.914063v52.917969c0 2.109375-1.054688 3.734375-3.164063 4.878907-2.109375 1.148437-4.625 1.71875-7.558594 1.71875-2.9375 0-5.453125-.570313-7.5625-1.71875-2.105469-1.144532-3.160156-2.769532-3.160156-4.878907zm0 0"/><path d="m320.195312 460.050781v-87.421875c0-2.105468 1.050782-3.710937 3.160157-4.808594 2.109375-1.101562 4.625-1.648437 7.5625-1.648437 2.929687 0 5.449219.546875 7.558593 1.648437 2.109376 1.097657 3.160157 2.703126 3.160157 4.808594v75.328125h31.339843c1.925782 0 3.4375.914063 4.539063 2.746094 1.097656 1.835937 1.648437 4.035156 1.648437 6.601563 0 2.566406-.550781 4.765624-1.648437 6.597656-1.101563 1.832031-2.613281 2.746094-4.539063 2.746094h-43.433593c-2.566407 0-4.765625-.570313-6.597657-1.714844-1.835937-1.148438-2.75-2.773438-2.75-4.882813zm0 0"/></g></svg>